<?xml version="1.0" encoding="UTF-8" standalone="no"?>
<!DOCTYPE svg PUBLIC "-//W3C//DTD SVG 1.0//EN" "http://www.w3.org/TR/2001/REC-SVG-20010904/DTD/svg10.dtd">
<svg xmlns="http://www.w3.org/2000/svg" version="1.0" viewBox="0 0 238 221">
<g stroke-width="2.00" fill="none" stroke-linecap="butt">
<path stroke="#9aa3ac" vector-effect="non-scaling-stroke" d="
  M 120.27 15.36
  L 70.57 65.13
  A 1.24 1.19 68.4 0 0 70.22 65.99
  L 70.30 110.21
  A 0.51 0.50 90.0 0 0 70.80 110.72
  L 170.22 110.72
  A 0.50 0.50 0.0 0 0 170.72 110.22
  L 170.77 66.41
  A 2.46 2.46 -67.5 0 0 170.05 64.67
  L 120.76 15.36
  A 0.35 0.34 44.4 0 0 120.27 15.36"
/>
<path stroke="#9aa3ac" vector-effect="non-scaling-stroke" d="
  M 49.74 85.85
  C 39.49 96.65 28.80 107.06 18.29 117.65
  A 0.51 0.50 -45.4 0 0 18.29 118.36
  L 55.57 155.71
  Q 55.98 156.12 55.98 155.54
  L 55.96 80.53
  Q 55.96 80.03 55.57 80.35
  Q 52.48 82.95 49.74 85.85"
/>
<path stroke="#9aa3ac" vector-effect="non-scaling-stroke" d="
  M 185.55 80.42
  A 0.32 0.32 -68.0 0 0 185.00 80.65
  L 185.00 155.35
  A 0.32 0.32 -22.8 0 0 185.55 155.58
  L 222.90 118.23
  A 0.32 0.32 90.0 0 0 222.90 117.77
  L 185.55 80.42"
/>
<path stroke="#9aa3ac" vector-effect="non-scaling-stroke" d="
  M 120.74 220.62
  C 137.64 204.45 153.97 187.28 170.42 170.60
  A 1.24 1.23 -23.0 0 0 170.77 169.74
  L 170.75 125.57
  A 0.31 0.31 0.0 0 0 170.44 125.26
  L 70.80 125.27
  A 0.50 0.50 0.0 0 0 70.30 125.77
  L 70.31 169.91
  A 1.23 1.23 -67.5 0 0 70.67 170.78
  L 120.16 220.61
  A 0.42 0.41 -43.5 0 0 120.74 220.62"
/>
</g>
<path fill="#374859" d="
  M 0.00 0.00
  L 238.00 0.00
  L 238.00 221.00
  L 0.00 221.00
  L 0.00 0.00
  Z
  M 120.27 15.36
  L 70.57 65.13
  A 1.24 1.19 68.4 0 0 70.22 65.99
  L 70.30 110.21
  A 0.51 0.50 90.0 0 0 70.80 110.72
  L 170.22 110.72
  A 0.50 0.50 0.0 0 0 170.72 110.22
  L 170.77 66.41
  A 2.46 2.46 -67.5 0 0 170.05 64.67
  L 120.76 15.36
  A 0.35 0.34 44.4 0 0 120.27 15.36
  Z
  M 49.74 85.85
  C 39.49 96.65 28.80 107.06 18.29 117.65
  A 0.51 0.50 -45.4 0 0 18.29 118.36
  L 55.57 155.71
  Q 55.98 156.12 55.98 155.54
  L 55.96 80.53
  Q 55.96 80.03 55.57 80.35
  Q 52.48 82.95 49.74 85.85
  Z
  M 185.55 80.42
  A 0.32 0.32 -68.0 0 0 185.00 80.65
  L 185.00 155.35
  A 0.32 0.32 -22.8 0 0 185.55 155.58
  L 222.90 118.23
  A 0.32 0.32 90.0 0 0 222.90 117.77
  L 185.55 80.42
  Z
  M 120.74 220.62
  C 137.64 204.45 153.97 187.28 170.42 170.60
  A 1.24 1.23 -23.0 0 0 170.77 169.74
  L 170.75 125.57
  A 0.31 0.31 0.0 0 0 170.44 125.26
  L 70.80 125.27
  A 0.50 0.50 0.0 0 0 70.30 125.77
  L 70.31 169.91
  A 1.23 1.23 -67.5 0 0 70.67 170.78
  L 120.16 220.61
  A 0.42 0.41 -43.5 0 0 120.74 220.62
  Z"
/>
<path fill="#fdfefe" d="
  M 120.27 15.36
  A 0.35 0.34 44.4 0 1 120.76 15.36
  L 170.05 64.67
  A 2.46 2.46 -67.5 0 1 170.77 66.41
  L 170.72 110.22
  A 0.50 0.50 0.0 0 1 170.22 110.72
  L 70.80 110.72
  A 0.51 0.50 90.0 0 1 70.30 110.21
  L 70.22 65.99
  A 1.24 1.19 68.4 0 1 70.57 65.13
  L 120.27 15.36
  Z"
/>
<path fill="#fdfefe" d="
  M 49.74 85.85
  Q 52.48 82.95 55.57 80.35
  Q 55.96 80.03 55.96 80.53
  L 55.98 155.54
  Q 55.98 156.12 55.57 155.71
  L 18.29 118.36
  A 0.51 0.50 -45.4 0 1 18.29 117.65
  C 28.80 107.06 39.49 96.65 49.74 85.85
  Z"
/>
<path fill="#fdfefe" d="
  M 185.55 80.42
  L 222.90 117.77
  A 0.32 0.32 0.0 0 1 222.90 118.23
  L 185.55 155.58
  A 0.32 0.32 -22.6 0 1 185.00 155.35
  L 185.00 80.65
  A 0.32 0.32 -75.3 0 1 185.55 80.42
  Z"
/>
<path fill="#fdfefe" d="
  M 170.42 170.60
  C 153.97 187.28 137.64 204.45 120.74 220.62
  A 0.42 0.41 -43.5 0 1 120.16 220.61
  L 70.67 170.78
  A 1.23 1.23 -67.5 0 1 70.31 169.91
  L 70.30 125.77
  A 0.50 0.50 0.0 0 1 70.80 125.27
  L 170.44 125.26
  A 0.31 0.31 0.1 0 1 170.75 125.57
  L 170.77 169.74
  A 1.24 1.23 -23.0 0 1 170.42 170.60
  Z"
/>
</svg>
